<svg width="32" height="32" viewBox="0 0 32 32" fill="none" xmlns="http://www.w3.org/2000/svg">
<path d="M18.6666 12.8667V11.2667C19.3999 10.9556 20.1499 10.7223 20.9166 10.5667C21.6833 10.4112 22.4888 10.3334 23.3333 10.3334C23.911 10.3334 24.4777 10.3778 25.0333 10.4667C25.5888 10.5556 26.1333 10.6667 26.6666 10.8V12.2667C26.1333 12.0667 25.5944 11.9167 25.0499 11.8167C24.5055 11.7167 23.9333 11.6667 23.3333 11.6667C22.4888 11.6667 21.6777 11.7723 20.8999 11.9834C20.1221 12.1945 19.3777 12.4889 18.6666 12.8667ZM18.6666 20.2V18.5667C19.3999 18.2556 20.1499 18.0278 20.9166 17.8834C21.6833 17.7389 22.4888 17.6667 23.3333 17.6667C23.911 17.6667 24.4777 17.7112 25.0333 17.8C25.5888 17.8889 26.1333 18 26.6666 18.1334V19.6C26.1333 19.4 25.5944 19.25 25.0499 19.15C24.5055 19.05 23.9333 19 23.3333 19C22.4888 19 21.6777 19.1 20.8999 19.3C20.1221 19.5 19.3777 19.8 18.6666 20.2ZM18.6666 16.5334V14.9334C19.3999 14.6223 20.1499 14.3889 20.9166 14.2334C21.6833 14.0778 22.4888 14 23.3333 14C23.911 14 24.4777 14.0445 25.0333 14.1334C25.5888 14.2223 26.1333 14.3334 26.6666 14.4667V15.9334C26.1333 15.7334 25.5944 15.5834 25.0499 15.4834C24.5055 15.3834 23.9333 15.3334 23.3333 15.3334C22.4888 15.3334 21.6777 15.4389 20.8999 15.65C20.1221 15.8612 19.3777 16.1556 18.6666 16.5334ZM8.26659 22C9.46659 22 10.6277 22.1389 11.7499 22.4167C12.8721 22.6945 13.9777 23.1112 15.0666 23.6667V9.43337C14.0666 8.76671 12.9833 8.25004 11.8166 7.88337C10.6499 7.51671 9.46659 7.33337 8.26659 7.33337C7.42214 7.33337 6.59436 7.43893 5.78325 7.65004C4.97214 7.86115 4.15547 8.12226 3.33325 8.43337V22.9C4.02214 22.5889 4.80547 22.3612 5.68325 22.2167C6.56103 22.0723 7.42214 22 8.26659 22ZM17.0666 23.6667C18.1777 23.1112 19.2666 22.6945 20.3333 22.4167C21.3999 22.1389 22.5333 22 23.7333 22C24.5777 22 25.4499 22.0667 26.3499 22.2C27.2499 22.3334 28.0221 22.5112 28.6666 22.7334V8.43337C27.911 8.0556 27.111 7.77782 26.2666 7.60004C25.4221 7.42226 24.5777 7.33337 23.7333 7.33337C22.5333 7.33337 21.3721 7.51671 20.2499 7.88337C19.1277 8.25004 18.0666 8.76671 17.0666 9.43337V23.6667ZM16.0666 26.6667C14.9333 25.8223 13.6999 25.1723 12.3666 24.7167C11.0333 24.2612 9.66659 24.0334 8.26659 24.0334C7.44436 24.0334 6.64436 24.1334 5.86659 24.3334C5.08881 24.5334 4.31103 24.7778 3.53325 25.0667C3.02214 25.3112 2.5277 25.2778 2.04992 24.9667C1.57214 24.6556 1.33325 24.2112 1.33325 23.6334V8.20004C1.33325 7.86671 1.41103 7.56115 1.56659 7.28337C1.72214 7.0056 1.95547 6.78893 2.26659 6.63337C3.19992 6.18893 4.17214 5.86115 5.18325 5.65004C6.19436 5.43893 7.22214 5.33337 8.26659 5.33337C9.66659 5.33337 11.0277 5.52226 12.3499 5.90004C13.6721 6.27782 14.911 6.8556 16.0666 7.63337C17.1999 6.8556 18.4166 6.27782 19.7166 5.90004C21.0166 5.52226 22.3555 5.33337 23.7333 5.33337C24.7777 5.33337 25.7999 5.43893 26.7999 5.65004C27.7999 5.86115 28.7666 6.18893 29.6999 6.63337C30.011 6.78893 30.2499 7.0056 30.4166 7.28337C30.5833 7.56115 30.6666 7.86671 30.6666 8.20004V23.6334C30.6666 24.2556 30.4166 24.7278 29.9166 25.05C29.4166 25.3723 28.9221 25.3778 28.4333 25.0667C27.6777 24.7556 26.911 24.5056 26.1333 24.3167C25.3555 24.1278 24.5555 24.0334 23.7333 24.0334C22.3333 24.0334 20.9888 24.2667 19.6999 24.7334C18.411 25.2 17.1999 25.8445 16.0666 26.6667Z" fill="#E0E0E0"/>
</svg>
