<svg width="300" height="45" viewBox="0 0 300 45" fill="none" xmlns="http://www.w3.org/2000/svg">
<path d="M0.144038 42.904C0.0160379 42.616 0.0960379 42.408 0.384038 42.28C1.79204 41.512 2.94404 40.568 3.84004 39.448C4.76804 38.328 5.44004 37.016 5.85604 35.512C6.30404 34.008 6.52804 32.296 6.52804 30.376H14.64C14.64 32.264 14.416 33.912 13.968 35.32C13.552 36.728 12.848 37.944 11.856 38.968C10.864 40.024 9.48804 40.968 7.72804 41.8C6.00004 42.664 3.82404 43.48 1.20004 44.248C0.912038 44.312 0.704038 44.216 0.576038 43.96L0.144038 42.904ZM6.52804 30.376V1.048H14.64V30.376H6.52804ZM1.53604 1.528C1.53604 1.208 1.68004 1.048 1.96804 1.048H19.296C19.616 1.048 19.776 1.208 19.776 1.528V2.536C19.776 2.824 19.632 3.032 19.344 3.16L15.744 4.12C15.328 4.248 15.04 4.408 14.88 4.6C14.72 4.792 14.64 5.176 14.64 5.752V10.984H6.52804V5.656C6.52804 5.176 6.46404 4.84 6.33604 4.648C6.20804 4.424 5.87204 4.232 5.32804 4.072L1.96804 3.16C1.68004 3.064 1.53604 2.872 1.53604 2.584V1.528Z" fill="#141414"/>
<path d="M34.3388 37.624C31.7148 37.624 29.4108 37.096 27.4268 36.04C25.4428 34.984 23.8908 33.512 22.7708 31.624C21.6828 29.736 21.1388 27.544 21.1388 25.048C21.1388 22.584 21.6828 20.424 22.7708 18.568C23.8908 16.68 25.4428 15.208 27.4268 14.152C29.4108 13.096 31.7148 12.568 34.3388 12.568C36.9948 12.568 39.3148 13.096 41.2988 14.152C43.2828 15.176 44.8348 16.632 45.9548 18.52C47.0748 20.376 47.6348 22.552 47.6348 25.048C47.6348 27.544 47.0748 29.736 45.9548 31.624C44.8348 33.512 43.2828 34.984 41.2988 36.04C39.3148 37.096 36.9948 37.624 34.3388 37.624ZM34.4828 33.352C36.1468 33.352 37.4428 32.696 38.3708 31.384C39.3308 30.04 39.8108 28.024 39.8108 25.336C39.8108 23.48 39.5708 21.928 39.0908 20.68C38.6108 19.432 37.9388 18.488 37.0748 17.848C36.2428 17.176 35.2828 16.84 34.1948 16.84C32.5308 16.84 31.2348 17.496 30.3068 18.808C29.3788 20.12 28.9148 22.136 28.9148 24.856C28.9148 27.576 29.4268 29.672 30.4508 31.144C31.5068 32.616 32.8508 33.352 34.4828 33.352Z" fill="#141414"/>
<path d="M57.66 37.624C55.676 37.624 54.076 37.048 52.86 35.896C51.644 34.712 51.036 33.176 51.036 31.288C51.036 29.24 51.788 27.64 53.292 26.488C54.796 25.336 57.068 24.616 60.108 24.328L65.964 23.704L65.82 26.488L61.404 27.064C60.092 27.256 59.132 27.576 58.524 28.024C57.948 28.472 57.66 29.128 57.66 29.992C57.66 30.824 57.932 31.496 58.476 32.008C59.02 32.488 59.756 32.728 60.684 32.728C61.548 32.728 62.3 32.616 62.94 32.392C63.58 32.136 64.108 31.864 64.524 31.576C64.94 31.256 65.228 31.016 65.388 30.856L65.964 31.432C65.836 32.04 65.548 32.696 65.1 33.4C64.684 34.104 64.108 34.776 63.372 35.416C62.668 36.056 61.82 36.584 60.828 37C59.868 37.416 58.812 37.624 57.66 37.624ZM65.1 21.736C65.1 20.104 64.732 18.872 63.996 18.04C63.292 17.176 62.268 16.744 60.924 16.744C60.284 16.744 59.692 16.824 59.148 16.984C58.604 17.112 58.124 17.416 57.708 17.896C57.324 18.376 57.004 19.096 56.748 20.056L56.364 21.448C56.268 21.768 56.076 21.928 55.788 21.928H54.348C54.028 21.928 53.852 21.768 53.82 21.448C53.532 20.392 53.276 19.352 53.052 18.328C52.828 17.272 52.604 16.264 52.38 15.304C52.348 15.048 52.46 14.84 52.716 14.68C53.772 14.264 55.148 13.816 56.844 13.336C58.572 12.824 60.38 12.568 62.268 12.568C65.5 12.568 68.044 13.368 69.9 14.968C71.788 16.568 72.732 18.776 72.732 21.592V29.224H65.1V21.736ZM72.732 29.224V34.888L71.772 33.208L75.516 34.504C75.804 34.632 75.948 34.84 75.948 35.128V36.088C75.948 36.376 75.788 36.552 75.468 36.616L72.876 37C71.02 37.288 69.548 37.416 68.46 37.384C67.404 37.352 66.636 37.096 66.156 36.616C65.708 36.104 65.484 35.336 65.484 34.312V32.104L65.1 31.72V29.224H72.732ZM54.108 9.16C53.852 8.968 53.756 8.712 53.82 8.392C54.012 7.624 54.268 6.856 54.588 6.088C54.94 5.32 55.388 4.664 55.932 4.12C56.476 3.576 57.164 3.304 57.996 3.304C59.052 3.304 60.044 3.48 60.972 3.832C61.932 4.152 62.844 4.488 63.708 4.84C64.604 5.192 65.5 5.368 66.396 5.368C66.908 5.368 67.34 5.208 67.692 4.888C68.076 4.536 68.444 4.12 68.796 3.64C68.956 3.384 69.164 3.352 69.42 3.544L70.236 4.216C70.46 4.376 70.556 4.616 70.524 4.936C70.364 5.64 70.108 6.392 69.756 7.192C69.404 7.992 68.956 8.664 68.412 9.208C67.868 9.752 67.18 10.024 66.348 10.024C65.292 10.024 64.3 9.864 63.372 9.544C62.444 9.192 61.532 8.84 60.636 8.488C59.74 8.136 58.844 7.96 57.948 7.96C57.436 7.96 56.972 8.12 56.556 8.44C56.172 8.76 55.82 9.176 55.5 9.688C55.34 9.944 55.148 9.976 54.924 9.784L54.108 9.16Z" fill="#141414"/>
<path d="M91.7607 37.624C89.1367 37.624 86.8327 37.096 84.8487 36.04C82.8647 34.984 81.3127 33.512 80.1927 31.624C79.1047 29.736 78.5607 27.544 78.5607 25.048C78.5607 22.584 79.1047 20.424 80.1927 18.568C81.3127 16.68 82.8647 15.208 84.8487 14.152C86.8327 13.096 89.1367 12.568 91.7607 12.568C94.4167 12.568 96.7367 13.096 98.7207 14.152C100.705 15.176 102.257 16.632 103.377 18.52C104.497 20.376 105.057 22.552 105.057 25.048C105.057 27.544 104.497 29.736 103.377 31.624C102.257 33.512 100.705 34.984 98.7207 36.04C96.7367 37.096 94.4167 37.624 91.7607 37.624ZM91.9047 33.352C93.5687 33.352 94.8647 32.696 95.7927 31.384C96.7527 30.04 97.2327 28.024 97.2327 25.336C97.2327 23.48 96.9927 21.928 96.5127 20.68C96.0327 19.432 95.3607 18.488 94.4967 17.848C93.6647 17.176 92.7047 16.84 91.6167 16.84C89.9527 16.84 88.6567 17.496 87.7287 18.808C86.8007 20.12 86.3367 22.136 86.3367 24.856C86.3367 27.576 86.8487 29.672 87.8727 31.144C88.9287 32.616 90.2727 33.352 91.9047 33.352Z" fill="#141414"/>
<path d="M141.569 4.84C139.425 4.84 137.553 5.416 135.953 6.568C134.353 7.72 133.121 9.352 132.257 11.464C131.425 13.544 131.009 16.056 131.009 19C131.009 21.944 131.441 24.472 132.305 26.584C133.169 28.696 134.385 30.328 135.953 31.48C137.553 32.632 139.425 33.208 141.569 33.208C142.881 33.208 144.113 33.096 145.265 32.872C146.449 32.648 147.505 32.328 148.433 31.912V24.76C148.433 24.184 148.353 23.816 148.193 23.656C148.033 23.496 147.729 23.368 147.281 23.272L142.385 22.408C142.097 22.376 141.953 22.2 141.953 21.88V20.152C141.953 19.832 142.113 19.672 142.433 19.672H158.897C159.217 19.672 159.377 19.832 159.377 20.152V21.88C159.377 22.2 159.233 22.408 158.945 22.504L157.121 23.08C156.577 23.24 156.225 23.432 156.065 23.656C155.937 23.88 155.873 24.216 155.873 24.664V30.328L156.209 33.16C156.241 33.48 156.225 33.704 156.161 33.832C156.097 33.928 155.937 34.056 155.681 34.216C154.049 35.272 152.017 36.104 149.585 36.712C147.153 37.32 144.513 37.624 141.665 37.624C137.825 37.624 134.433 36.84 131.489 35.272C128.577 33.704 126.305 31.528 124.673 28.744C123.073 25.928 122.273 22.68 122.273 19C122.273 15.32 123.073 12.088 124.673 9.304C126.305 6.52 128.577 4.344 131.489 2.776C134.433 1.208 137.825 0.423999 141.665 0.423999C143.681 0.423999 145.457 0.599999 146.993 0.951998C148.561 1.272 149.793 1.592 150.689 1.912L152.561 2.248C153.041 2.344 153.393 2.472 153.617 2.632C153.841 2.76 154.001 3.016 154.097 3.4C154.193 3.784 154.257 4.392 154.289 5.224L154.817 13.288C154.849 13.576 154.705 13.752 154.385 13.816L152.513 14.056C152.193 14.12 151.985 13.992 151.889 13.672L149.969 9.16C149.745 8.648 149.537 8.264 149.345 8.008C149.185 7.752 148.945 7.464 148.625 7.144C147.729 6.376 146.673 5.8 145.457 5.416C144.273 5.032 142.977 4.84 141.569 4.84Z" fill="#141414"/>
<path d="M168.613 37.624C166.629 37.624 165.029 37.048 163.813 35.896C162.597 34.712 161.989 33.176 161.989 31.288C161.989 29.24 162.741 27.64 164.245 26.488C165.749 25.336 168.021 24.616 171.061 24.328L176.917 23.704L176.773 26.488L172.357 27.064C171.045 27.256 170.085 27.576 169.477 28.024C168.901 28.472 168.613 29.128 168.613 29.992C168.613 30.824 168.885 31.496 169.429 32.008C169.973 32.488 170.709 32.728 171.637 32.728C172.501 32.728 173.253 32.616 173.893 32.392C174.533 32.136 175.061 31.864 175.477 31.576C175.893 31.256 176.181 31.016 176.341 30.856L176.917 31.432C176.789 32.04 176.501 32.696 176.053 33.4C175.637 34.104 175.061 34.776 174.325 35.416C173.621 36.056 172.773 36.584 171.781 37C170.821 37.416 169.765 37.624 168.613 37.624ZM176.053 21.736C176.053 20.104 175.685 18.872 174.949 18.04C174.245 17.176 173.221 16.744 171.877 16.744C171.237 16.744 170.645 16.824 170.101 16.984C169.557 17.112 169.077 17.416 168.661 17.896C168.277 18.376 167.957 19.096 167.701 20.056L167.317 21.448C167.221 21.768 167.029 21.928 166.741 21.928H165.301C164.981 21.928 164.805 21.768 164.773 21.448C164.485 20.392 164.229 19.352 164.005 18.328C163.781 17.272 163.557 16.264 163.333 15.304C163.301 15.048 163.413 14.84 163.669 14.68C164.725 14.264 166.101 13.816 167.797 13.336C169.525 12.824 171.333 12.568 173.221 12.568C176.453 12.568 178.997 13.368 180.853 14.968C182.741 16.568 183.685 18.776 183.685 21.592V29.224H176.053V21.736ZM183.685 29.224V34.888L182.725 33.208L186.469 34.504C186.757 34.632 186.901 34.84 186.901 35.128V36.088C186.901 36.376 186.741 36.552 186.421 36.616L183.829 37C181.973 37.288 180.501 37.416 179.413 37.384C178.357 37.352 177.589 37.096 177.109 36.616C176.661 36.104 176.437 35.336 176.437 34.312V32.104L176.053 31.72V29.224H183.685Z" fill="#141414"/>
<path d="M190.762 9.832H198.394V32.536L193.834 37.288C193.738 37.384 193.626 37.464 193.498 37.528C193.37 37.592 193.226 37.624 193.066 37.624H191.194C190.906 37.624 190.762 37.464 190.762 37.144V9.832ZM197.098 31.72C197.642 32.168 198.33 32.52 199.162 32.776C199.994 33.032 201.034 33.16 202.282 33.16C204.394 33.16 206.026 32.456 207.178 31.048C208.33 29.608 208.906 27.608 208.906 25.048C208.906 22.84 208.426 21.128 207.466 19.912C206.506 18.696 205.178 18.088 203.482 18.088C202.522 18.088 201.562 18.312 200.602 18.76C199.642 19.176 198.73 19.8 197.866 20.632L197.338 19.384C198.17 17.304 199.45 15.656 201.178 14.44C202.938 13.192 204.826 12.568 206.842 12.568C208.826 12.568 210.538 13.048 211.978 14.008C213.45 14.968 214.586 16.344 215.386 18.136C216.186 19.896 216.586 21.976 216.586 24.376C216.586 27.096 216.09 29.448 215.098 31.432C214.106 33.416 212.698 34.952 210.874 36.04C209.082 37.096 206.922 37.624 204.394 37.624C202.474 37.624 200.794 37.288 199.354 36.616C197.914 35.944 196.554 34.872 195.274 33.4L197.098 31.72ZM190.762 9.88V2.632L191.674 4.792L187.978 3.976C187.69 3.912 187.546 3.72 187.546 3.4V2.296C187.546 1.976 187.706 1.816 188.026 1.816L196.954 0.423999C197.466 0.359998 197.834 0.391998 198.058 0.519998C198.282 0.647998 198.394 0.935998 198.394 1.384V9.88H190.762Z" fill="#141414"/>
<path d="M223.19 37V22.072H230.822V37H223.19ZM240.086 18.712C240.086 19 239.926 19.144 239.606 19.144H236.294C235.814 19.144 235.382 19.176 234.998 19.24C234.614 19.304 234.23 19.416 233.846 19.576C233.174 19.864 232.518 20.232 231.878 20.68C231.238 21.096 230.694 21.56 230.246 22.072V20.248C230.502 19.128 230.886 18.104 231.398 17.176C231.942 16.216 232.55 15.4 233.222 14.728C233.926 14.024 234.694 13.496 235.526 13.144C236.39 12.76 237.286 12.568 238.214 12.568C239.462 12.568 240.086 12.808 240.086 13.288V18.712ZM220.982 37C220.694 37 220.55 36.84 220.55 36.52V35.608C220.55 35.288 220.694 35.08 220.982 34.984L221.99 34.696C222.566 34.472 222.902 34.296 222.998 34.168C223.126 34.008 223.19 33.656 223.19 33.112V28.36H230.822V33.016C230.822 33.592 230.87 33.96 230.966 34.12C231.094 34.28 231.414 34.44 231.926 34.6L233.846 35.032C234.134 35.128 234.278 35.336 234.278 35.656V36.52C234.278 36.84 234.118 37 233.798 37H220.982ZM223.19 22.072V14.824L224.102 16.984L220.454 16.168C220.134 16.104 219.974 15.912 219.974 15.592V14.488C219.974 14.2 220.134 14.008 220.454 13.912L228.902 12.616C229.446 12.552 229.814 12.584 230.006 12.712C230.23 12.84 230.342 13.128 230.342 13.576V18.904L230.822 19.672V22.072H223.19Z" fill="#141414"/>
<path d="M245.315 37V22.024H252.947V37H245.315ZM243.107 37C242.819 37 242.675 36.84 242.675 36.52V35.608C242.675 35.288 242.819 35.08 243.107 34.984L244.115 34.696C244.691 34.472 245.027 34.296 245.123 34.168C245.251 34.008 245.315 33.656 245.315 33.112V28.36H252.947V33.016C252.947 33.592 252.995 33.96 253.091 34.12C253.219 34.28 253.539 34.44 254.051 34.6L255.971 35.032C256.259 35.128 256.403 35.336 256.403 35.656V36.52C256.403 36.84 256.243 37 255.923 37H243.107ZM245.315 22.024V14.824L246.227 16.936L242.579 16.12C242.259 16.056 242.099 15.864 242.099 15.544V14.488C242.099 14.136 242.259 13.96 242.579 13.96L251.507 12.616C252.019 12.52 252.387 12.536 252.611 12.664C252.835 12.792 252.947 13.096 252.947 13.576V22.024H245.315ZM249.203 9.448C247.891 9.448 246.835 9.112 246.035 8.44C245.267 7.768 244.883 6.856 244.883 5.704C244.883 4.584 245.267 3.688 246.035 3.016C246.835 2.344 247.891 2.008 249.203 2.008C250.483 2.008 251.507 2.344 252.275 3.016C253.075 3.688 253.475 4.584 253.475 5.704C253.475 6.856 253.075 7.768 252.275 8.44C251.507 9.112 250.483 9.448 249.203 9.448Z" fill="#141414"/>
<path d="M271.835 37.624C269.627 37.624 267.579 37.144 265.691 36.184C263.803 35.192 262.283 33.768 261.131 31.912C260.011 30.024 259.451 27.72 259.451 25C259.451 22.28 260.027 20.008 261.179 18.184C262.363 16.328 263.915 14.936 265.835 14.008C267.755 13.048 269.819 12.568 272.027 12.568C274.075 12.568 275.915 13.016 277.547 13.912C279.179 14.808 280.475 16.072 281.435 17.704C282.395 19.336 282.875 21.256 282.875 23.464C282.875 23.752 282.859 24.056 282.827 24.376C282.827 24.696 282.811 25.032 282.779 25.384C282.715 25.704 282.539 25.864 282.251 25.864H266.267V22.552H277.547L276.299 23.272C276.299 23.112 276.299 22.984 276.299 22.888C276.299 22.76 276.299 22.632 276.299 22.504C276.299 21.416 276.091 20.44 275.675 19.576C275.291 18.712 274.763 18.024 274.091 17.512C273.419 17 272.651 16.744 271.787 16.744C270.219 16.744 269.003 17.416 268.139 18.76C267.307 20.072 266.891 21.992 266.891 24.52C266.891 26.12 267.195 27.56 267.803 28.84C268.411 30.12 269.259 31.144 270.347 31.912C271.467 32.648 272.779 33.016 274.283 33.016C276.395 33.016 278.267 32.456 279.899 31.336C280.187 31.144 280.395 31.192 280.523 31.48L281.243 32.824C281.371 33.048 281.339 33.304 281.147 33.592C280.059 34.84 278.699 35.832 277.067 36.568C275.435 37.272 273.691 37.624 271.835 37.624Z" fill="#141414"/>
<path d="M288.655 37V9.832H296.287V37H288.655ZM286.447 37C286.127 37 285.967 36.84 285.967 36.52V35.608C285.967 35.288 286.127 35.08 286.447 34.984L287.455 34.696C288.031 34.472 288.367 34.296 288.463 34.168C288.591 34.008 288.655 33.656 288.655 33.112V28.36H296.287V33.016C296.287 33.592 296.335 33.96 296.431 34.12C296.559 34.28 296.879 34.44 297.391 34.6L299.311 35.032C299.599 35.128 299.743 35.336 299.743 35.656V36.52C299.743 36.84 299.583 37 299.263 37H286.447ZM288.655 9.88V2.632L289.567 4.792L285.871 3.976C285.583 3.912 285.439 3.72 285.439 3.4V2.296C285.439 1.976 285.599 1.816 285.919 1.816L294.847 0.423999C295.359 0.359998 295.727 0.391998 295.951 0.519998C296.175 0.647998 296.287 0.935998 296.287 1.384V9.88H288.655Z" fill="#141414"/>
</svg>
